<svg width="40" height="40" viewBox="0 0 40 40" fill="none" xmlns="http://www.w3.org/2000/svg">
<g clip-path="url(#clip0_3355_81197)">
<path d="M19.5 2L19.6555 2.03101M19.6555 2.03101L2 20.9399H5.44541V37.971C14.7653 38.0689 33.4051 38.2059 33.4051 37.971C33.4051 37.7361 33.4051 26.8322 33.4051 21.4097H38.1006L31.7586 15.302V6.43405H26.6667V8.78317C24.32 6.4253 19.6324 1.77386 19.6555 2.03101Z" stroke="black" stroke-width="1.63285"/>
<path d="M24.75 27.75V26.25C24.75 25.0125 23.7375 24 22.5 24H16.5C15.2625 24 14.25 25.0125 14.25 26.25V27.75C13.0125 27.75 12 28.7625 12 30V33.75C12 34.9875 13.0125 36 14.25 36V37.5H15.75V36H23.25V37.5H24.75V36C25.9875 36 27 34.9875 27 33.75V30C27 28.7625 25.9875 27.75 24.75 27.75ZM15.75 26.25C15.75 25.8375 16.0875 25.5 16.5 25.5H22.5C22.9125 25.5 23.25 25.8375 23.25 26.25V28.335C22.7925 28.7475 22.5 29.34 22.5 30V31.5H16.5V30C16.5 29.34 16.2075 28.7475 15.75 28.335V26.25ZM25.5 33.75C25.5 34.1625 25.1625 34.5 24.75 34.5H14.25C13.8375 34.5 13.5 34.1625 13.5 33.75V30C13.5 29.5875 13.8375 29.25 14.25 29.25C14.6625 29.25 15 29.5875 15 30V33H24V30C24 29.5875 24.3375 29.25 24.75 29.25C25.1625 29.25 25.5 29.5875 25.5 30V33.75Z" fill="black"/>
<path fill-rule="evenodd" clip-rule="evenodd" d="M21.119 18.1889C21.0075 18.2713 20.8864 18.3396 20.7532 18.3748C20.3784 18.4753 19.9689 18.3255 19.6112 18.225C17.213 17.5503 15.6067 16.4936 15.146 14.917C14.7782 13.6578 15.1319 12.3967 15.9097 11.6129C16.6302 10.8869 17.6984 10.5924 18.7942 11.0642C19.5077 10.1076 20.5804 9.82823 21.5672 10.097C22.6324 10.3869 23.5689 11.3024 23.8799 12.5766C23.9409 12.8265 23.9715 13.0809 23.9719 13.3398C24.1005 13.4058 24.2211 13.4862 24.3336 13.581C24.915 14.0729 25.2255 14.9084 25.0521 15.7771C24.831 16.8855 23.8036 17.6638 22.3339 18.2195C22.0822 18.315 21.8068 18.4331 21.532 18.3848C21.3793 18.3577 21.2426 18.2793 21.119 18.1889ZM16.1107 14.6351C15.8419 13.7141 16.1122 12.8359 16.6231 12.3208C17.1135 11.8264 17.8406 11.6425 18.6445 12.1128C18.9253 12.2771 19.2876 12.1797 19.4484 11.8978C19.9096 11.0884 20.6311 10.8839 21.3029 11.0668C22.0033 11.2577 22.6766 11.8827 22.9037 12.8147C22.9315 12.9266 22.9499 13.0413 22.9589 13.1589C22.7749 13.1825 22.5953 13.2334 22.4264 13.3102C21.8867 12.7841 21.1723 12.6806 20.5422 12.9127C19.8277 13.1755 19.2499 13.8548 19.1153 14.7306C18.9781 15.6274 19.4017 16.5017 20.19 17.3423C20.0905 17.3171 19.9875 17.287 19.8835 17.2578C17.5567 16.6032 16.4166 15.6827 16.1107 14.6351ZM20.1091 14.8828C20.1895 14.3552 20.5306 13.988 20.8894 13.8553C21.221 13.7337 21.5893 13.7975 21.8692 14.202C21.9109 14.2623 21.9641 14.3137 22.0258 14.3532C22.0876 14.3928 22.1565 14.4197 22.2287 14.4325C22.3009 14.4452 22.3749 14.4435 22.4464 14.4275C22.5179 14.4115 22.5856 14.3815 22.6454 14.3392C23.0474 14.0543 23.4152 14.1206 23.6845 14.3482C23.9769 14.5954 24.1708 15.0577 24.0663 15.5807C23.9533 16.1485 23.379 16.7504 21.9787 17.2795C21.8898 17.3131 21.8013 17.3493 21.7099 17.3759C21.633 17.3191 21.5622 17.2553 21.4898 17.1935C20.3553 16.2173 20.0212 15.4556 20.1091 14.8828Z" fill="black"/>
</g>
<defs>
<clipPath id="clip0_3355_81197">
<rect width="40" height="40" fill="white"/>
</clipPath>
</defs>
</svg>
